<svg version="1.2" xmlns="http://www.w3.org/2000/svg" viewBox="0 0 744 156" width="744" height="156">
	<title>logo_Telinfor_blanco-svg</title>
	<style>
		.s0 { fill: #ffffff } 
	</style>
	<g id="Capa_2">
		<g id="Layer_1">
			<path id="Layer" class="s0" d="m135.3 103.2q-1.9 1.7-3.9 3.2-1.9 1.6-3.9 3-2.1 1.5-4.2 2.8-2.1 1.3-4.3 2.5-2.9 1.7-5.9 3.2-3.1 1.6-6.2 2.9-3.1 1.4-6.3 2.6-3.2 1.1-6.4 2.1 4.3-1 8.6-2.4 4.2-1.4 8.4-3.1 4.1-1.6 8.1-3.6 4-1.9 7.9-4.2c2.8-1.6 7.7-4.7 7.9-4.9q0-0.5 0-1-0.1-0.5 0-1 0-0.6 0-1.1 0.1-0.5 0.1-1z"/>
			<path id="Layer" class="s0" d="m164.8 26.8q-0.5-0.8-1-1.5-0.6-0.8-1.1-1.5-0.6-0.7-1.2-1.4-0.6-0.7-1.2-1.4c-23.4-26.3-76.2-28.1-118-4.1-22.7 13.1-37.3 31.2-42.3 49.2 5.8-15.6 19.1-30.8 38.6-42.1 39.6-23 89.6-21.2 111.8 3.8 1.1 1.3 3.6 4.7 3.8 5 3.6-4.2 10.6-6 10.6-6z"/>
			<path id="Layer" class="s0" d="m94.5 105.8q0.2-0.8 0.1-1.6-0.2-0.8-0.7-1.5-0.6-0.7-1.3-1-0.8-0.4-1.7-0.4h-15.6q-1 0.1-1.9 0.4-0.9 0.4-1.6 1-0.8 0.6-1.3 1.4-0.5 0.8-0.7 1.7l-3.3 15.7q-0.3 0.8-0.1 1.7 0.2 0.8 0.7 1.5 0.5 0.6 1.3 1 0.8 0.3 1.6 0.3h15.7q0.9 0 1.8-0.4 0.9-0.3 1.7-0.9 0.7-0.6 1.2-1.5 0.5-0.8 0.8-1.7z"/>
			<path id="Layer" class="s0" d="m251.7 29.3h-1.3l-16.6 72q-1.5 6.7 1.7 10.8c2.9 3.6 8.5 5.4 17.1 5.4h58.3l3.8-18.7h-56.4c-2.6 0-3.1-0.3-3.2-0.4q0-0.2 0.1-0.3 0-0.2 0-0.4 0-0.2 0.1-0.4 0-0.2 0.1-0.3l13.7-61.1q0.1-0.6 0.1-1.2 0-0.6-0.1-1.2-0.1-0.6-0.4-1.2-0.3-0.5-0.6-1-0.4-0.5-0.9-0.8-0.5-0.4-1-0.6-0.6-0.3-1.2-0.4-0.5-0.1-1.1-0.1z"/>
			<path id="Layer" class="s0" d="m345.7 29.3h-1.3l-20.2 88.2h20.5l18.4-81.6q0.1-0.6 0.1-1.2 0-0.6-0.1-1.2-0.1-0.6-0.4-1.2-0.2-0.6-0.6-1.1-0.4-0.4-0.9-0.8-0.5-0.3-1-0.6-0.5-0.2-1.1-0.4-0.6-0.1-1.2-0.1z"/>
			<path id="Layer" class="s0" d="m402.6 29.3c-14.5 0-23 5.3-25.4 15.6l-16.7 72.6h20.1l15.4-66.9c0.6-2.1 4-2.6 6.9-2.6h28.9c3.8 0 4.7 0.8 5 1 0.2 0.2 0.2 0.3 0 0.9l-15.6 67.5h20.1l16.6-71.7c1-4.5 0.4-8.2-1.7-10.9-3-3.7-8.5-5.5-17-5.5z"/>
			<path id="Layer" class="s0" d="m499.1 29.4c-14.4 0-23 5.2-25.3 15.5l-16.8 72.6h19.9l8.2-33.7h61.1l3.7-18.7h-60.9c0.8-3.2 3.7-14.4 3.7-14.4 0.6-2.2 4.1-2.7 6.9-2.7l54.8-0.1 2.4-12q0-0.1 0.1-0.3 0-0.1 0-0.3 0-0.1 0-0.3 0-0.2 0.1-0.3 0-0.5-0.1-0.9-0.1-0.5-0.2-0.9-0.2-0.4-0.4-0.8-0.2-0.4-0.5-0.8-0.4-0.5-0.9-0.8-0.4-0.4-1-0.6-0.5-0.3-1.1-0.4-0.6-0.1-1.2-0.1z"/>
			<path id="Layer" fill-rule="evenodd" class="s0" d="m649.1 45.7l-13 56.4c-2.3 10.2-10.9 15.4-25.3 15.4h-36.6c-8.6 0-14.2-1.8-17.1-5.5-2.2-2.7-2.7-6.3-1.7-10.7l13-56.4c2.3-10.3 10.9-15.6 25.3-15.6h36.7c8.5 0 14 1.8 16.9 5.5 2.2 2.7 2.8 6.4 1.8 10.9zm-20.7 3.3c-0.2-0.2-1.2-1-5-1h-28.9c-2.8 0-6.3 0.5-6.8 2.7l-11.7 46.3c-0.1 0.5 0 0.7 0.1 0.8 0.2 0.2 1.1 1 5 1h28.8c4.2 0 6.5-0.9 6.9-2.7l11.7-46.2c0.1-0.6 0.1-0.7-0.1-0.9z"/>
			<path id="Layer" class="s0" d="m667.4 29.3h-1.4l-3.6 18.6 54.8 0.1c3.8 0 4.8 0.8 5 1 0.2 0.2 0.2 0.3 0.1 0.8l-2.3 11c-0.4 1.8-4.4 2.1-6.7 2.1h-55.5l-12 54.5h19.9l8.2-33.7h15.4c0.8 1.9 15 34.4 15 34.4h20.3c0 0-13.2-30.3-15-34.4h4.3c13-0.1 22.4-6.6 24.9-17.4l4.8-20.8q0.1-0.4 0.1-0.9 0.1-0.5 0.2-0.9 0-0.5 0.1-1 0-0.5 0-0.9 0-1-0.1-1.9-0.1-0.9-0.4-1.8-0.3-0.9-0.8-1.8-0.4-0.8-1-1.5c-3-3.7-8.6-5.5-17.2-5.5z"/>
			<path id="Layer" class="s0" d="m59.8 29.6l-4.7 20.2h29.4c-0.8 3.7-9.3 40.3-9.3 40.3h22c0 0 8.8-37.9 9.3-40.3h27.4l3.4-14.2q0.1-0.2 0.1-0.4 0-0.1 0-0.3 0.1-0.2 0.1-0.4 0-0.2 0-0.4 0-1.1-0.4-2.2-0.5-1.1-1.3-1.9-0.8-0.8-1.9-1.3-1.1-0.4-2.3-0.3h-70.2-1.3z"/>
			<path id="Layer" fill-rule="evenodd" class="s0" d="m409.5 155.6h-15.9l-2.6-2.3v-4.2l2.7-2.4h9.2l3.3 1.8v-4.1h-12.6l-2.6-2.4h15.2l3.3 2.4zm-3.3-2.4v-4.1h-11.9v4.1z"/>
			<path id="Layer" fill-rule="evenodd" class="s0" d="m432.6 155.6h-15.9l-2.6-2.3v-8.9l2.6-2.4h9.3l3.3 1.7v-10.1h3.3zm-3.3-2.4v-8.8h-11.9v8.8z"/>
			<path id="Layer" class="s0" d="m455.7 142.6l-7.3 13.1h-3.9l-7.3-13.1 2.6-1.2 6.7 11.9 6.5-11.9z"/>
			<path id="Layer" fill-rule="evenodd" class="s0" d="m478.1 155.6h-15.9l-2.6-2.3v-4.2l2.6-2.4h9.3l3.3 1.8v-4.1h-12.6l-2.6-2.4h15.2l3.3 2.4zm-3.3-2.4v-4.1h-11.9v4.1z"/>
			<path id="Layer" class="s0" d="m501.2 155.6h-3.3v-11.2h-11.9v11.2h-3.3v-13.6h3.3v1.7l3.3-1.7h9.2l2.7 2.4z"/>
			<path id="Layer" class="s0" d="m522.3 153.3l-2.6 2.3h-11.2l-2.7-2.3v-8.9l2.7-2.4h13.8l-2.6 2.3h-10.6v8.9z"/>
			<path id="Layer" fill-rule="evenodd" class="s0" d="m543.8 155.6h-15.2l-3.3-2.3v-8.9l2.7-2.4h13.2l2.7 2.4v4.1l-2.7 2.4h-9.2l-3.3-1.8v4.2h12.5zm-3.3-7.2v-4.1h-11.9v4.1z"/>
			<path id="Layer" fill-rule="evenodd" class="s0" d="m566.8 155.6h-15.9l-2.7-2.3v-8.9l2.7-2.4h9.2l3.4 1.7v-10.1h3.3zm-3.3-2.4v-8.8h-12v8.8z"/>
			<path id="Layer" class="s0" d="m600.7 142l-2.6 2.4h-3.3v11.2h-3.4v-11.2h-3.3v-2.4h3.3v-8.4h3.4v8.4z"/>
			<path id="Layer" fill-rule="evenodd" class="s0" d="m622.9 155.6h-15.2l-3.3-2.3v-8.9l2.6-2.4h13.2l2.7 2.4v4.1l-2.7 2.4h-9.2l-3.3-1.8v4.2h12.6zm-3.4-7.2v-4.1h-11.9v4.1z"/>
			<path id="Layer" class="s0" d="m633.9 153.3l-3.3 2.3h-3.3v-22h3.3v19.7z"/>
			<path id="Layer" fill-rule="evenodd" class="s0" d="m656.7 155.6h-15.2l-3.3-2.3v-8.9l2.6-2.4h13.2l2.7 2.4v4.1l-2.7 2.4h-9.2l-3.3-1.8v4.2h12.5zm-3.3-7.2v-4.1h-11.9v4.1z"/>
			<path id="Layer" class="s0" d="m677.6 153.3l-2.6 2.3h-11.3l-2.6-2.3v-8.9l2.6-2.4h13.9l-2.6 2.3h-10.5v8.9z"/>
			<path id="Layer" fill-rule="evenodd" class="s0" d="m699.1 153.3l-2.7 2.3h-13.2l-2.6-2.4v-8.8l2.6-2.4h13.2l2.7 2.4zm-3.4 0v-8.9h-11.8v8.9z"/>
			<path id="Layer" class="s0" d="m730.7 155.6h-3.3v-11.2h-8.5v11.2h-3.4v-11.2h-8.5v11.2h-3.3v-13.6h3.3v1.7l3.3-1.7h8.6v1.7l3.3-1.7h5.9l2.7 2.4z"/>
			<path id="Layer" class="s0" d="m176.7 29.3c-14.4 0-23 5.3-25.4 15.6l-13 56.4c-1 4.4-0.4 8 1.7 10.7 3 3.7 8.5 5.5 17.1 5.5h58.4l3.8-18.8h-57.4c-3.9 0-4.8-0.8-5-1 0-0.1-0.2-0.2 0-0.8 0 0 2.8-11.4 3.7-15.2h63.2l3.7-18.9h-62.2c0.6-3 2.6-12.2 2.6-12.2 0.5-2.1 4-2.6 6.9-2.6l57.2-0.1 2.5-12q0-0.1 0-0.3 0-0.1 0.1-0.3 0-0.2 0-0.3 0-0.2 0-0.3 0-0.5-0.1-0.9 0-0.5-0.2-0.9-0.1-0.4-0.4-0.8-0.2-0.4-0.5-0.8-0.3-0.5-0.8-0.8-0.5-0.4-1-0.6-0.6-0.3-1.2-0.4-0.6-0.1-1.1-0.1z"/>
		</g>
	</g>
</svg>